:SAMPLES-PER-SECOND 30
:FULLY-SPECIFIED
:DEGREES
237
root  -3.10955 40.8645 1.1288 171.713 -77.5361 -175.011
RightUpLeg  5.96743 -0.718934 -1.0491
RightLeg  -0.177665 -8.09654 -0.656947
RightFoot  -1.19647 -0.390784 4.31756
RightToes  -3.13006e-008 1.75238e-005 3.56266e-009
Spine  -11.3329 -0.803181 -1.42215
Spine1  18.9923 -1.7943 2.58719
HEad  -9.35323 11.2339 20.0835
LeftShoulder1  2.52925 -5.54345 -21.6098
LeftArm  -44.3423 -18.5412 -29.6016
LeftForeArm  149.946 -77.6142 -132.136
LeftHand  0.51889 -7.14505 -4.40198
RightShoulder  2.86441 6.72963 21.7252
RightArm  -26.4615 28.7281 28.6594
RightForeArm  114.444 80.5136 98.8864
RightHand  -0.669645 9.26461 -5.67711
LeftUpLeg  8.46187 2.49476 2.39419
LeftLeg  -0.577082 23.027 -0.514678
LeftFoot  -3.09735 0.228043 -2.97985
LeftToes  4.76866e-008 1.46233e-008 1.30548e-009
238
root  -3.12564 40.8625 1.11584 171.455 -77.9497 -175.025
RightUpLeg  6.38221 -0.836151 -1.09858
RightLeg  -0.240929 -8.37542 -0.634662
RightFoot  -1.28496 -0.391415 4.34461
RightToes  -3.13006e-008 1.75238e-005 3.56266e-009
Spine  -11.4669 -0.781005 -1.59966
Spine1  19.3301 -1.79194 2.72217
HEad  -9.50109 11.2165 21.0492
LeftShoulder1  2.5852 -5.65984 -21.883
LeftArm  -42.2569 -17.8127 -29.8857
LeftForeArm  150.981 -78.0132 -130.736
LeftHand  0.647774 -7.89736 -5.2756
RightShoulder  2.82023 6.58284 21.6942
RightArm  -25.1809 28.7148 28.3284
RightForeArm  114.097 80.62 97.0893
RightHand  -0.542247 9.01893 -4.74672
LeftUpLeg  8.70463 2.56379 2.44381
LeftLeg  -0.494799 22.532 -0.526722
LeftFoot  -3.19006 0.229354 -3.00818
LeftToes  4.76866e-008 1.46233e-008 1.30548e-009
239
root  -3.15661 40.8622 1.09636 170.958 -78.4955 -174.746
RightUpLeg  6.82437 -0.999776 -1.12768
RightLeg  -0.389872 -8.77147 -0.513631
RightFoot  -1.30084 -0.382915 4.24535
RightToes  -3.13006e-008 1.75238e-005 3.56266e-009
Spine  -11.8612 -0.881314 -1.7771
Spine1  19.9643 -1.90917 2.80833
HEad  -9.0661 11.5535 21.8451
LeftShoulder1  2.62058 -5.72487 -22.0784
LeftArm  -40.6789 -17.3839 -30.0498
LeftForeArm  150.77 -78.1571 -130.051
LeftHand  0.721924 -7.51412 -6.1179
RightShoulder  2.73576 6.25569 21.7718
RightArm  -23.9928 29.0002 28.9009
RightForeArm  112.919 80.7323 94.3965
RightHand  -0.473356 8.94748 -4.212
LeftUpLeg  8.93045 2.61844 2.53921
LeftLeg  -0.486351 21.9041 -0.525527
LeftFoot  -3.22044 0.225368 -2.95211
LeftToes  4.76866e-008 1.46233e-008 1.30548e-009
240
root  -3.15704 40.8627 1.07828 170.861 -78.7553 -174.696
RightUpLeg  6.90795 -1.01971 -1.11818
RightLeg  -0.368529 -8.99915 -0.502247
RightFoot  -1.35655 -0.379386 4.21975
RightToes  -3.13006e-008 1.75238e-005 3.56266e-009
Spine  -11.9301 -0.807694 -1.73759
Spine1  19.8733 -1.796 2.70593
HEad  -8.63444 11.6933 22.241
LeftShoulder1  2.67891 -5.87283 -22.2644
LeftArm  -39.4659 -17.0689 -30.8947
LeftForeArm  148.646 -78.2893 -128.9
LeftHand  0.803063 -7.0688 -7.09741
RightShoulder  2.7432 6.27008 21.8095
RightArm  -23.3181 28.5931 29.6757
RightForeArm  112.073 80.7858 92.7091
RightHand  -0.473625 8.95721 -4.2138
LeftUpLeg  8.94026 2.63435 2.57835
LeftLeg  -0.450454 21.6087 -0.510619
LeftFoot  -3.21504 0.230798 -3.04033
LeftToes  4.76866e-008 1.46233e-008 1.30548e-009
241
root  -3.15187 40.8635 1.06463 171.117 -78.9942 -174.895
RightUpLeg  6.82656 -1.0313 -1.14645
RightLeg  -0.288724 -9.21542 -0.532645
RightFoot  -1.40907 -0.379114 4.24329
RightToes  -3.13006e-008 1.75238e-005 3.56266e-009
Spine  -12.1554 -0.824911 -1.83865
Spine1  19.9911 -1.78772 2.69041
HEad  -8.09222 11.8692 22.6821
LeftShoulder1  2.68045 -5.86597 -22.3035
LeftArm  -38.7031 -17.0219 -31.8796
LeftForeArm  144.754 -78.323 -127.697
LeftHand  0.723285 -6.72865 -6.5636
RightShoulder  2.84956 6.49844 22.2551
RightArm  -23.063 28.2714 30.1044
RightForeArm  110.694 80.7824 91.5455
RightHand  -0.420219 9.26218 -3.71387
LeftUpLeg  8.87067 2.59248 2.53184
LeftLeg  -0.509619 21.4565 -0.534639
LeftFoot  -3.19302 0.231121 -3.04665
LeftToes  4.76866e-008 1.46233e-008 1.30548e-009
242
root  -3.14039 40.8641 1.05475 171.269 -79.0887 -175.028
RightUpLeg  6.77257 -1.07292 -1.18347
RightLeg  -0.228652 -9.25836 -0.501112
RightFoot  -1.46021 -0.373405 4.18114
RightToes  -3.13006e-008 1.75238e-005 3.56266e-009
Spine  -12.0466 -0.745199 -1.97615
Spine1  19.7081 -1.74621 2.88465
HEad  -7.77981 11.9437 22.8447
LeftShoulder1  2.68915 -5.84877 -22.4583
LeftArm  -38.1189 -17.115 -32.7462
LeftForeArm  141.206 -78.3976 -126.354
LeftHand  0.704452 -6.83124 -6.32273
RightShoulder  3.02797 6.99668 22.6267
RightArm  -22.9917 27.8232 30.0916
RightForeArm  111.8 80.7244 93.6362
RightHand  -0.427147 8.95913 -3.83744
LeftUpLeg  8.8275 2.59371 2.53337
LeftLeg  -0.523738 21.3546 -0.556577
LeftFoot  -3.17615 0.233903 -3.08856
LeftToes  4.76866e-008 1.46233e-008 1.30548e-009
243
root  -3.12483 40.8642 1.04046 171.4 -79.1926 -175.135
RightUpLeg  6.72168 -1.05757 -1.17699
RightLeg  -0.192732 -9.3884 -0.521407
RightFoot  -1.47751 -0.376645 4.25672
RightToes  -3.13006e-008 1.75238e-005 3.56266e-009
Spine  -12.0397 -0.722479 -2.05558
Spine1  19.6696 -1.74673 3.00074
HEad  -7.60858 12.431 22.8613
LeftShoulder1  2.65495 -5.72818 -22.4635
LeftArm  -37.3836 -17.2138 -33.3794
LeftForeArm  138.851 -78.3412 -125.973
LeftHand  0.581294 -6.82639 -5.16936
RightShoulder  3.05257 7.0516 22.7125
RightArm  -22.4662 28.269 30.9779
RightForeArm  109.523 80.6943 92.2569
RightHand  -0.41266 8.94135 -3.69843
LeftUpLeg  8.76213 2.56566 2.52454
LeftLeg  -0.508668 21.2817 -0.540629
LeftFoot  -3.15695 0.239699 -3.17449
LeftToes  4.76866e-008 1.46233e-008 1.30548e-009
244
root  -3.10594 40.8631 1.03125 171.305 -79.3407 -174.984
RightUpLeg  6.68785 -1.06007 -1.15419
RightLeg  -0.262565 -9.55376 -0.466058
RightFoot  -1.45261 -0.371206 4.19462
RightToes  -3.13006e-008 1.75238e-005 3.56266e-009
Spine  -12.2981 -0.765807 -1.87305
Spine1  19.8693 -1.74216 2.76402
HEad  -7.27599 12.532 22.4042
LeftShoulder1  2.69429 -5.91278 -22.3079
LeftArm  -36.0447 -17.1229 -33.5462
LeftForeArm  135.876 -78.359 -125.031
LeftHand  0.173021 -6.19907 -1.37439
RightShoulder  3.09035 7.15945 22.7783
RightArm  -21.5287 29.8135 32.6159
RightForeArm  102.651 80.6223 86.7635
RightHand  -0.183147 8.44967 -1.92683
LeftUpLeg  8.59471 2.56049 2.55609
LeftLeg  -0.374841 21.1408 -0.471618
LeftFoot  -3.19643 0.246207 -3.26838
LeftToes  4.76866e-008 1.46233e-008 1.30548e-009
